<svg width="28" height="28" viewBox="0 0 28 28" fill="none" xmlns="http://www.w3.org/2000/svg">
<path d="M8.86381 14.4475C8.86381 14.4475 6.47168 14.8096 6.18851 16.2907L5.3457 13.0309L9.1431 7.11719C9.1431 7.11719 8.43515 10.6225 9.65281 11.0577C10.9349 11.5162 8.86381 14.4475 8.86381 14.4475Z" fill="white" stroke="white" stroke-width="0.215138" stroke-linecap="round" stroke-linejoin="round"/>
<path d="M25.7769 11.7486C25.918 12.4908 25.9891 13.2445 25.9893 14C25.9893 20.6259 20.6221 26 14.0014 26C7.38074 26 2.01172 20.6273 2.01172 14C2.01172 7.37268 7.37897 2.00002 13.9996 2.00002C16.2767 1.99625 18.5072 2.64494 20.4277 3.86945" stroke="white" stroke-width="2.15138" stroke-linecap="round" stroke-linejoin="round"/>
<path d="M22.3461 12.9028C22.3934 13.267 22.417 13.6339 22.4169 14.0012C22.4169 18.6546 18.6481 22.4271 13.9994 22.4271C9.35075 22.4271 5.58203 18.6535 5.58203 14.0001C5.58203 9.34675 9.35075 5.57423 13.9994 5.57423C15.6129 5.57166 17.1929 6.03551 18.5494 6.91004" stroke="white" stroke-width="2.15138" stroke-linecap="round" stroke-linejoin="round"/>
<path d="M18.8329 14.4809C18.7277 15.5396 18.2784 16.5345 17.5539 17.313C16.8295 18.0915 15.8699 18.6106 14.8223 18.7906C13.7748 18.9706 12.6972 18.8017 11.7548 18.3096C10.8124 17.8176 10.0574 17.0296 9.60542 16.0667C9.15347 15.1037 9.02962 14.0189 9.25286 12.9787C9.47609 11.9385 10.0341 11.0003 10.8412 10.3081C11.6484 9.61595 12.6601 9.20794 13.7212 9.14673C14.7823 9.08551 15.8342 9.37446 16.7155 9.96926" stroke="white" stroke-width="2.15138" stroke-linecap="round" stroke-linejoin="round"/>
<path d="M7.66462 13.7394C8.48041 13.7394 9.14174 13.0774 9.14174 12.2608C9.14174 11.4442 8.48041 10.7822 7.66462 10.7822C6.84883 10.7822 6.1875 11.4442 6.1875 12.2608C6.1875 13.0774 6.84883 13.7394 7.66462 13.7394Z" fill="white" stroke="white" stroke-width="0.51633" stroke-linecap="round" stroke-linejoin="round"/>
<path d="M21.574 11.2957C22.0398 11.2957 22.4175 10.9176 22.4175 10.4513C22.4175 9.98497 22.0398 9.60693 21.574 9.60693C21.1081 9.60693 20.7305 9.98497 20.7305 10.4513C20.7305 10.9176 21.1081 11.2957 21.574 11.2957Z" fill="white"/>
</svg>
