<svg width="32" height="40" viewBox="0 0 32 40" fill="none" xmlns="http://www.w3.org/2000/svg">
<path d="M15.1135 20V2.27273C15.1135 1.77046 15.2836 1.34973 15.624 1.01055C15.9644 0.67137 16.3851 0.501188 16.8862 0.500006C17.3873 0.498824 17.8086 0.669006 18.1501 1.01055C18.4917 1.3521 18.6613 1.77282 18.6589 2.27273V20H15.1135ZM8.02255 20V4.04546C8.02255 3.54319 8.19273 3.12246 8.5331 2.78328C8.87346 2.4441 9.29419 2.27392 9.79528 2.27273C10.2964 2.27155 10.7177 2.44173 11.0592 2.78328C11.4008 3.12482 11.5704 3.54555 11.568 4.04546V20H8.02255ZM15.9998 39.5C11.8044 39.5 8.24414 38.0375 5.31914 35.1125C2.39414 32.1875 0.931641 28.6273 0.931641 24.4318V7.59092C0.931641 7.08864 1.10182 6.66792 1.44219 6.32873C1.78255 5.98955 2.20328 5.81937 2.70437 5.81819C3.20546 5.81701 3.62678 5.98719 3.96832 6.32873C4.30987 6.67028 4.47946 7.09101 4.4771 7.59092V24.4318C4.4771 27.6523 5.59273 30.3781 7.824 32.6094C10.0553 34.8407 12.7806 35.9557 15.9998 35.9546C19.2191 35.9534 21.945 34.8377 24.1774 32.6076C26.4099 30.3776 27.5249 27.6523 27.5225 24.4318V18.2273C27.0203 18.2273 26.5996 18.3975 26.2604 18.7378C25.9212 19.0782 25.751 19.4989 25.7498 20V27.0909H20.4316C19.4566 27.0909 18.6223 27.4384 17.9286 28.1333C17.2348 28.8282 16.8874 29.6626 16.8862 30.6364V32.4091H13.3407V30.6364C13.3407 28.6864 14.035 27.0171 15.4237 25.6284C16.8123 24.2398 18.4816 23.5455 20.4316 23.5455H22.2044V5.81819C22.2044 5.31592 22.3745 4.89519 22.7149 4.55601C23.0553 4.21682 23.476 4.04664 23.9771 4.04546C24.4782 4.04428 24.8995 4.21446 25.241 4.55601C25.5826 4.89755 25.7522 5.31828 25.7498 5.81819V14.9921C26.0453 14.9034 26.3336 14.8296 26.6149 14.7705C26.8962 14.7114 27.1987 14.6818 27.5225 14.6818H31.068V24.4318C31.068 28.6273 29.6055 32.1875 26.6805 35.1125C23.7555 38.0375 20.1953 39.5 15.9998 39.5Z" fill="#ACACAC"/>
</svg>
