<svg width="32" height="32" viewBox="0 0 32 32" fill="none" xmlns="http://www.w3.org/2000/svg">
<g clip-path="url(#clip0_2091_1086)">
<path fill-rule="evenodd" clip-rule="evenodd" d="M15.9964 4.07886C17.7782 4.07835 19.5374 4.47725 21.1447 5.24622C22.752 6.01519 24.1665 7.13468 25.2841 8.52234C26.4018 9.91 27.1941 11.5305 27.603 13.2648C28.0118 14.999 28.0266 16.8028 27.6465 18.5436C27.2663 20.2843 26.5008 21.9177 25.4061 23.3236C24.3115 24.7295 22.9157 25.8722 21.3213 26.6675C19.7269 27.4629 17.9745 27.8907 16.1929 27.9196C14.4114 27.9484 12.6461 27.5776 11.0267 26.8343L5.08501 27.9091C4.93601 27.9358 4.78261 27.9224 4.64043 27.8706C4.49824 27.8187 4.37232 27.73 4.27549 27.6137C4.17866 27.4974 4.11436 27.3575 4.08914 27.2082C4.06391 27.059 4.07865 26.9057 4.13187 26.764L5.83587 22.228C4.72904 20.4215 4.12362 18.3527 4.08196 16.2345C4.04029 14.1163 4.56387 12.0252 5.5988 10.1766C6.63374 8.32794 8.14263 6.78851 9.97016 5.71676C11.7977 4.645 13.8778 4.07963 15.9964 4.07886ZM12.5713 16C12.5713 16.4547 12.3907 16.8907 12.0692 17.2122C11.7477 17.5337 11.3117 17.7143 10.857 17.7143C10.4024 17.7143 9.96632 17.5337 9.64483 17.2122C9.32334 16.8907 9.14273 16.4547 9.14273 16C9.14273 15.5453 9.32334 15.1093 9.64483 14.7878C9.96632 14.4663 10.4024 14.2857 10.857 14.2857C11.3117 14.2857 11.7477 14.4663 12.0692 14.7878C12.3907 15.1093 12.5713 15.5453 12.5713 16ZM15.9999 17.7143C16.4545 17.7143 16.8906 17.5337 17.2121 17.2122C17.5335 16.8907 17.7142 16.4547 17.7142 16C17.7142 15.5453 17.5335 15.1093 17.2121 14.7878C16.8906 14.4663 16.4545 14.2857 15.9999 14.2857C15.5452 14.2857 15.1092 14.4663 14.7877 14.7878C14.4662 15.1093 14.2856 15.5453 14.2856 16C14.2856 16.4547 14.4662 16.8907 14.7877 17.2122C15.1092 17.5337 15.5452 17.7143 15.9999 17.7143ZM21.1427 17.7143C21.5974 17.7143 22.0334 17.5337 22.3549 17.2122C22.6764 16.8907 22.857 16.4547 22.857 16C22.857 15.5453 22.6764 15.1093 22.3549 14.7878C22.0334 14.4663 21.5974 14.2857 21.1427 14.2857C20.6881 14.2857 20.252 14.4663 19.9305 14.7878C19.6091 15.1093 19.4284 15.5453 19.4284 16C19.4284 16.4547 19.6091 16.8907 19.9305 17.2122C20.252 17.5337 20.6881 17.7143 21.1427 17.7143Z" fill="white"/>
</g>
<defs>
<clipPath id="clip0_2091_1086">
<rect width="24" height="24" fill="white" transform="translate(4 4)"/>
</clipPath>
</defs>
</svg>
