<svg width="40" height="40" viewBox="0 0 40 40" fill="none" xmlns="http://www.w3.org/2000/svg">
<path d="M6.53847 17.3077C8.76885 17.3077 10.5769 15.4996 10.5769 13.2692C10.5769 11.0389 8.76885 9.23077 6.53847 9.23077C4.30808 9.23077 2.5 11.0389 2.5 13.2692C2.5 15.4996 4.30808 17.3077 6.53847 17.3077Z" stroke="#ACACAC" stroke-width="3.29808" stroke-linecap="round" stroke-linejoin="round"/>
<path d="M6.53906 17.3077V37.5001" stroke="#ACACAC" stroke-width="3.29808" stroke-linecap="round" stroke-linejoin="round"/>
<path d="M6.53906 2.5V9.23078" stroke="#ACACAC" stroke-width="3.29808" stroke-linecap="round" stroke-linejoin="round"/>
<path d="M33.4613 17.3077C35.6917 17.3077 37.4998 15.4996 37.4998 13.2692C37.4998 11.0389 35.6917 9.23077 33.4613 9.23077C31.2309 9.23077 29.4229 11.0389 29.4229 13.2692C29.4229 15.4996 31.2309 17.3077 33.4613 17.3077Z" stroke="#ACACAC" stroke-width="3.29808" stroke-linecap="round" stroke-linejoin="round"/>
<path d="M33.4619 9.23078V2.5" stroke="#ACACAC" stroke-width="3.29808" stroke-linecap="round" stroke-linejoin="round"/>
<path d="M33.4619 37.5001V17.3077" stroke="#ACACAC" stroke-width="3.29808" stroke-linecap="round" stroke-linejoin="round"/>
<path d="M20.0004 24.0385C22.2308 24.0385 24.0388 22.2304 24.0388 20C24.0388 17.7696 22.2308 15.9615 20.0004 15.9615C17.77 15.9615 15.9619 17.7696 15.9619 20C15.9619 22.2304 17.77 24.0385 20.0004 24.0385Z" stroke="#ACACAC" stroke-width="3.29808" stroke-linecap="round" stroke-linejoin="round"/>
<path d="M20 2.5V15.9616" stroke="#ACACAC" stroke-width="3.29808" stroke-linecap="round" stroke-linejoin="round"/>
<path d="M20 24.0385V37.5001" stroke="#ACACAC" stroke-width="3.29808" stroke-linecap="round" stroke-linejoin="round"/>
</svg>
