<svg width="36" height="40" viewBox="0 0 36 40" fill="none" xmlns="http://www.w3.org/2000/svg">
<path d="M13.2338 7.21153L14.3915 4.22308C14.5867 3.71709 14.9302 3.28187 15.377 2.97442C15.8238 2.66696 16.353 2.5016 16.8953 2.5H19.103C19.6453 2.5016 20.1746 2.66696 20.6213 2.97442C21.0681 3.28187 21.4116 3.71709 21.6068 4.22308L22.7645 7.21153L26.6953 9.47307L29.8722 8.98846C30.4012 8.91665 30.9396 9.00373 31.419 9.23863C31.8984 9.47353 32.2971 9.84565 32.5645 10.3077L33.6415 12.1923C33.9174 12.6617 34.0445 13.2037 34.0061 13.7469C33.9676 14.29 33.7654 14.8088 33.4261 15.2346L31.4607 17.7384V22.2615L33.4799 24.7654C33.8192 25.1912 34.0215 25.7099 34.0599 26.2531C34.0984 26.7962 33.9713 27.3383 33.6953 27.8077L32.6184 29.6923C32.351 30.1543 31.9522 30.5264 31.4728 30.7613C30.9935 30.9962 30.4551 31.0833 29.9261 31.0115L26.7491 30.5269L22.8184 32.7884L21.6607 35.7769C21.4654 36.2829 21.1219 36.7181 20.6752 37.0256C20.2284 37.333 19.6992 37.4984 19.1568 37.5H16.8953C16.353 37.4984 15.8238 37.333 15.377 37.0256C14.9302 36.7181 14.5867 36.2829 14.3915 35.7769L13.2338 32.7884L9.30301 30.5269L6.12608 31.0115C5.59709 31.0833 5.05869 30.9962 4.57931 30.7613C4.09992 30.5264 3.70119 30.1543 3.43378 29.6923L2.35686 27.8077C2.0809 27.3383 1.95376 26.7962 1.99221 26.2531C2.03066 25.7099 2.2329 25.1912 2.57224 24.7654L4.53762 22.2615V17.7384L2.51839 15.2346C2.17906 14.8088 1.97682 14.29 1.93836 13.7469C1.89991 13.2037 2.02705 12.6617 2.30301 12.1923L3.37993 10.3077C3.64734 9.84565 4.04607 9.47353 4.52546 9.23863C5.00485 9.00373 5.54325 8.91665 6.07224 8.98846L9.24916 9.47307L13.2338 7.21153ZM12.6145 20C12.6145 21.065 12.9303 22.106 13.522 22.9915C14.1137 23.877 14.9546 24.5672 15.9386 24.9747C16.9225 25.3823 18.0051 25.4889 19.0496 25.2811C20.0942 25.0734 21.0536 24.5605 21.8066 23.8075C22.5597 23.0544 23.0725 22.095 23.2803 21.0505C23.4881 20.006 23.3814 18.9233 22.9739 17.9394C22.5663 16.9555 21.8762 16.1145 20.9907 15.5228C20.1052 14.9312 19.0641 14.6154 17.9992 14.6154C16.5711 14.6154 15.2015 15.1827 14.1917 16.1925C13.1818 17.2023 12.6145 18.5719 12.6145 20V20Z" stroke="#ACACAC" stroke-width="3.29807" stroke-linecap="round" stroke-linejoin="round"/>
</svg>
