<svg width="26" height="26" viewBox="0 0 26 26" fill="none" xmlns="http://www.w3.org/2000/svg">
<path d="M23.6258 6.28351C19.8935 0.497634 12.2504 -1.2167 6.33954 2.37269C0.57152 5.96208 -1.28568 13.7837 2.44657 19.5518L2.75015 20.0161L1.50012 24.6948L6.17882 23.4447L6.64312 23.7483C8.66104 24.8376 10.8575 25.4626 13.0362 25.4626C15.3755 25.4626 17.7149 24.8376 19.7328 23.5876C25.5008 19.8375 27.2151 12.1765 23.6258 6.2478V6.28351ZM20.3578 18.3196C19.7328 19.2482 18.947 19.8732 17.8577 20.0339C17.2327 20.0339 16.447 20.3375 13.3397 19.1053C10.6968 17.8553 8.50032 15.8195 6.9467 13.4802C6.01811 12.3908 5.53595 10.9801 5.39309 9.56932C5.39309 8.31929 5.85739 7.22997 6.64312 6.44423C6.9467 6.14065 7.26814 5.97994 7.57172 5.97994H8.35746C8.66104 5.97994 8.98248 5.97994 9.1432 6.60495C9.44678 7.39069 10.2325 9.26574 10.2325 9.42646C10.3932 9.58718 10.3218 10.7836 9.60749 11.4622C9.21463 11.9087 9.14319 11.9265 9.30391 12.248C9.92893 13.1766 10.7147 14.123 11.4825 14.9088C12.4111 15.6945 13.3576 16.3195 14.4469 16.7838C14.7505 16.9445 15.0719 16.9445 15.2327 16.6231C15.3934 16.3195 16.1613 15.5338 16.4827 15.2123C16.7863 14.9088 16.947 14.9088 17.2684 15.0516L19.7685 16.3017C20.0721 16.4624 20.3935 16.6052 20.5542 16.766C20.715 17.2303 20.715 17.8553 20.3935 18.3196H20.3578Z" fill="#242424"/>
</svg>
