<svg width="168" height="36" viewBox="0 0 168 36" fill="none" xmlns="http://www.w3.org/2000/svg">
<g clip-path="url(#clip0_2070_5)">
<path d="M40.4658 12.8537H42.8308V19.5588L47.7373 12.8537H49.9703V23.1487H47.6196V16.4565L42.7136 23.1468H40.4658V12.8537Z" fill="#242424"/>
<path d="M61.839 12.8534V23.1485H59.4592V18.9265H54.7861V23.1465H52.4062V12.8514H54.7861V16.9101H59.4572V12.8514L61.839 12.8534Z" fill="#242424"/>
<path d="M72.1509 14.7947H68.8603V23.1465H66.5101V14.7947H63.2344V12.8535H72.1509V14.7947Z" fill="#242424"/>
<path d="M81.4939 21.2335V23.145H73.5332V12.85H81.3041V14.7615H75.8967V16.9967H80.6712V18.8528H75.8967V21.2335H81.4939Z" fill="#242424"/>
<path d="M90.1233 13.3093C90.7934 13.6132 91.3098 14.0438 91.6724 14.6011C92.035 15.1584 92.2163 15.8202 92.2163 16.5864C92.2163 17.3413 92.035 18.0013 91.6724 18.5662C91.3098 19.1311 90.7933 19.5624 90.1228 19.86C89.4517 20.1589 88.6605 20.3084 87.7494 20.3084H85.6796V23.1465H83.2998V12.8514H87.7499C88.6614 12.8528 89.4525 13.0054 90.1233 13.3093ZM89.2496 17.9044C89.6214 17.5956 89.8075 17.1569 89.8078 16.5883C89.8078 16.0102 89.6218 15.5666 89.2496 15.2574C88.8774 14.9482 88.3335 14.794 87.6179 14.7946H85.6796V18.3677H87.6179C88.3332 18.3677 88.8771 18.2133 89.2496 17.9044Z" fill="#242424"/>
<path d="M103.045 12.8534V23.1485H100.68V14.7946H96.0378V23.1465H93.6729V12.8514L103.045 12.8534Z" fill="#FC4B03"/>
<path d="M112.445 20.941H107.671L106.76 23.1465H104.321L108.904 12.8514H111.254L115.852 23.1465H113.355L112.445 20.941ZM111.696 19.1324L110.064 15.1916L108.432 19.1324H111.696Z" fill="#FC4B03"/>
<path d="M123.924 13.3093C124.595 13.6132 125.111 14.0445 125.474 14.6031C125.836 15.1618 126.018 15.8235 126.018 16.5884C126.018 17.3433 125.836 18.0033 125.474 18.5682C125.111 19.1331 124.595 19.5644 123.924 19.862C123.253 20.161 122.462 20.3104 121.551 20.3104H119.479V23.1485H117.1V12.8535H121.55C122.462 12.8535 123.253 13.0054 123.924 13.3093ZM123.05 17.9045C123.422 17.5956 123.608 17.1569 123.608 16.5884C123.608 16.0103 123.422 15.5666 123.05 15.2574C122.678 14.9483 122.134 14.794 121.418 14.7947H119.479V18.3677H121.418C122.134 18.3677 122.678 18.2133 123.05 17.9045Z" fill="#FC4B03"/>
<path d="M135.052 14.7947H131.762V23.1465H129.411V14.7947H126.137V12.8535H135.054L135.052 14.7947Z" fill="#FC4B03"/>
<path d="M145.865 12.8534V23.1485H143.486V18.9265H138.814V23.1465H136.435V12.8514H138.814V16.9101H143.486V12.8514L145.865 12.8534Z" fill="#FC4B03"/>
<path d="M156.278 21.2335V23.145H148.317V12.85H156.088V14.7615H150.681V16.9967H155.458V18.8528H150.683V21.2335H156.278Z" fill="#FC4B03"/>
<path d="M164.907 13.3093C165.578 13.6132 166.095 14.0445 166.457 14.6031C166.82 15.1618 167.001 15.8235 167.001 16.5884C167.001 17.3433 166.82 18.0033 166.457 18.5682C166.095 19.1331 165.578 19.5644 164.907 19.862C164.237 20.161 163.446 20.3104 162.534 20.3104H160.463V23.1485H158.083V12.8535H162.533C163.445 12.8535 164.237 13.0054 164.907 13.3093ZM164.033 17.9045C164.405 17.5956 164.591 17.1569 164.592 16.5884C164.592 16.0103 164.405 15.5666 164.033 15.2574C163.661 14.9483 163.117 14.794 162.402 14.7947H160.463V18.3677H162.402C163.117 18.3677 163.661 18.2133 164.033 17.9045Z" fill="#FC4B03"/>
<path d="M10.808 18.6251C10.808 18.6251 7.46642 19.131 7.07085 21.1999L5.89355 16.6463L11.1981 8.3855C11.1981 8.3855 10.2092 13.2821 11.9101 13.8899C13.701 14.5304 10.808 18.6251 10.808 18.6251Z" fill="#FC4B03" stroke="#FC4B03" stroke-width="0.300523" stroke-linecap="round" stroke-linejoin="round"/>
<path d="M34.4336 14.8551C34.6307 15.8918 34.7301 16.9447 34.7303 18C34.7303 27.2556 27.2328 34.7626 17.9845 34.7626C8.73623 34.7626 1.23633 27.2576 1.23633 18C1.23633 8.74238 8.73376 1.23739 17.9821 1.23739C21.1628 1.23213 24.2786 2.13828 26.9614 3.84877" stroke="#FC4B03" stroke-width="3.00523" stroke-linecap="round" stroke-linejoin="round"/>
<path d="M29.6411 16.4671C29.7071 16.9759 29.7402 17.4884 29.74 18.0015C29.74 24.5017 24.4755 29.7715 17.9818 29.7715C11.4881 29.7715 6.22363 24.5002 6.22363 18C6.22363 11.4998 11.4881 6.23 17.9818 6.23C20.2357 6.22641 22.4426 6.87435 24.3375 8.09597" stroke="#FC4B03" stroke-width="3.00523" stroke-linecap="round" stroke-linejoin="round"/>
<path d="M24.7328 18.6717C24.5858 20.1505 23.9582 21.5403 22.9462 22.6278C21.9342 23.7153 20.5937 24.4403 19.1304 24.6918C17.6672 24.9433 16.1619 24.7072 14.8455 24.0199C13.5291 23.3326 12.4743 22.2319 11.843 20.8868C11.2117 19.5416 11.0387 18.0263 11.3505 16.5733C11.6624 15.1202 12.4418 13.8097 13.5693 12.8428C14.6968 11.8759 16.1101 11.3059 17.5924 11.2204C19.0746 11.1349 20.5439 11.5385 21.7749 12.3694" stroke="#FC4B03" stroke-width="3.00523" stroke-linecap="round" stroke-linejoin="round"/>
<path d="M9.13465 17.6357C10.2742 17.6357 11.198 16.711 11.198 15.5703C11.198 14.4296 10.2742 13.5048 9.13465 13.5048C7.99509 13.5048 7.07129 14.4296 7.07129 15.5703C7.07129 16.711 7.99509 17.6357 9.13465 17.6357Z" fill="#FC4B03" stroke="#FC4B03" stroke-width="0.721254" stroke-linecap="round" stroke-linejoin="round"/>
<path d="M28.5621 14.223C29.2128 14.223 29.7404 13.695 29.7404 13.0436C29.7404 12.3921 29.2128 11.8641 28.5621 11.8641C27.9113 11.8641 27.3838 12.3921 27.3838 13.0436C27.3838 13.695 27.9113 14.223 28.5621 14.223Z" fill="#FC4B03"/>
</g>
<defs>
<clipPath id="clip0_2070_5">
<rect width="168" height="36" fill="white"/>
</clipPath>
</defs>
</svg>
