<svg width="98" height="40" viewBox="0 0 98 40" fill="none" xmlns="http://www.w3.org/2000/svg">
<rect width="97.4348" height="40" rx="20" fill="#FC4B03"/>
<path d="M14.9922 29.7587V26.8178H18.9224V13.1823H14.9922V10.2414H26.2214V13.1823H22.2911V26.8178H26.2214V29.7587H14.9922Z" fill="white"/>
<path d="M36.6915 30.0261C35.3547 30.0261 34.1961 29.8033 33.2158 29.3577C32.2355 28.9121 31.4779 28.2793 30.9432 27.4594C30.4263 26.6217 30.1589 25.6414 30.1411 24.5184H33.4831C33.4831 25.3205 33.7683 25.9533 34.3387 26.4167C34.9269 26.8623 35.7201 27.0851 36.7182 27.0851C37.6807 27.0851 38.4293 26.8623 38.964 26.4167C39.5166 25.9711 39.7929 25.3562 39.7929 24.5719C39.7929 23.9124 39.5968 23.3421 39.2047 22.8608C38.8304 22.3617 38.2867 22.0231 37.5738 21.8448L35.3279 21.2299C33.7951 20.8378 32.6098 20.1337 31.772 19.1178C30.9521 18.1018 30.5422 16.8719 30.5422 15.4282C30.5422 14.3231 30.7917 13.3606 31.2908 12.5407C31.7899 11.7208 32.4939 11.088 33.4029 10.6424C34.3298 10.1968 35.4171 9.974 36.6647 9.974C38.5541 9.974 40.0513 10.4642 41.1564 11.4445C42.2615 12.407 42.823 13.7081 42.8408 15.348H39.4988C39.4988 14.5815 39.2492 13.9844 38.7502 13.5566C38.2511 13.111 37.547 12.8882 36.638 12.8882C35.7646 12.8882 35.0873 13.0932 34.6061 13.5032C34.1248 13.9131 33.8842 14.4924 33.8842 15.241C33.8842 15.9183 34.0624 16.4976 34.4189 16.9789C34.7932 17.4423 35.3279 17.772 36.0231 17.9681L38.3491 18.6098C39.8998 19.0019 41.0851 19.7059 41.905 20.7219C42.7249 21.7201 43.1349 22.9588 43.1349 24.4382C43.1349 25.5433 42.8675 26.5237 42.3328 27.3792C41.7981 28.2169 41.0495 28.8675 40.087 29.331C39.1245 29.7944 37.9926 30.0261 36.6915 30.0261Z" fill="white"/>
<path d="M50.9849 29.7587V13.3428H45.8783V10.2414H59.4602V13.3428H54.3536V29.7587H50.9849Z" fill="white"/>
<g clip-path="url(#clip0_4061_58)">
<path d="M82.1708 12.0519V25.2856L79.083 25.2856L79.083 17.3454L68.9371 27.4912L66.7315 25.2856L76.8774 15.1397L68.9371 15.1397L68.9371 12.0519H82.1708Z" fill="white"/>
</g>
<defs>
<clipPath id="clip0_4061_58">
<rect width="27.0332" height="27.0332" fill="white" transform="translate(61.4863 6.4834)"/>
</clipPath>
</defs>
</svg>
