<svg width="247" height="96" viewBox="0 0 247 96" fill="none" xmlns="http://www.w3.org/2000/svg">
<rect width="247" height="96" rx="8" fill="white"/>
<rect x="80" y="80" width="64" height="64" rx="4" transform="rotate(180 80 80)" fill="#FC4B03"/>
<path d="M42.8638 48.4475C42.8638 48.4475 40.4717 48.8096 40.1885 50.2907L39.3457 47.0309L43.1431 41.1172C43.1431 41.1172 42.4352 44.6225 43.6528 45.0577C44.9349 45.5162 42.8638 48.4475 42.8638 48.4475Z" fill="white" stroke="white" stroke-width="0.215138" stroke-linecap="round" stroke-linejoin="round"/>
<path d="M59.7769 45.7486C59.918 46.4908 59.9891 47.2445 59.9893 48C59.9893 54.6259 54.6221 60 48.0014 60C41.3807 60 36.0117 54.6273 36.0117 48C36.0117 41.3727 41.379 36 47.9996 36C50.2767 35.9963 52.5072 36.6449 54.4277 37.8694" stroke="white" stroke-width="2.15138" stroke-linecap="round" stroke-linejoin="round"/>
<path d="M56.3461 46.9028C56.3934 47.267 56.417 47.6339 56.4169 48.0012C56.4169 52.6546 52.6481 56.4271 47.9994 56.4271C43.3508 56.4271 39.582 52.6535 39.582 48.0001C39.582 43.3467 43.3508 39.5742 47.9994 39.5742C49.6129 39.5717 51.1929 40.0355 52.5494 40.91" stroke="white" stroke-width="2.15138" stroke-linecap="round" stroke-linejoin="round"/>
<path d="M52.8329 48.4809C52.7277 49.5396 52.2784 50.5345 51.5539 51.313C50.8295 52.0915 49.8699 52.6106 48.8223 52.7906C47.7748 52.9706 46.6972 52.8017 45.7548 52.3096C44.8124 51.8176 44.0574 51.0296 43.6054 50.0667C43.1535 49.1037 43.0296 48.0189 43.2529 46.9787C43.4761 45.9385 44.0341 45.0003 44.8412 44.3081C45.6484 43.6159 46.6601 43.2079 47.7212 43.1467C48.7823 43.0855 49.8342 43.3745 50.7155 43.9693" stroke="white" stroke-width="2.15138" stroke-linecap="round" stroke-linejoin="round"/>
<path d="M41.6646 47.7394C42.4804 47.7394 43.1417 47.0774 43.1417 46.2608C43.1417 45.4442 42.4804 44.7822 41.6646 44.7822C40.8488 44.7822 40.1875 45.4442 40.1875 46.2608C40.1875 47.0774 40.8488 47.7394 41.6646 47.7394Z" fill="white" stroke="white" stroke-width="0.51633" stroke-linecap="round" stroke-linejoin="round"/>
<path d="M55.574 45.2957C56.0398 45.2957 56.4175 44.9176 56.4175 44.4513C56.4175 43.985 56.0398 43.6069 55.574 43.6069C55.1081 43.6069 54.7305 43.985 54.7305 44.4513C54.7305 44.9176 55.1081 45.2957 55.574 45.2957Z" fill="white"/>
<path d="M98.752 56.88L100.016 53.488L96.736 45.2H98.64L100.48 50.16C100.555 50.3733 100.629 50.6293 100.704 50.928C100.779 51.2267 100.843 51.472 100.896 51.664C100.939 51.472 100.997 51.2267 101.072 50.928C101.147 50.6293 101.221 50.3733 101.296 50.16L103.024 45.2H104.864L100.576 56.88H98.752ZM105.978 54.112V52.528H106.314C106.74 52.528 107.05 52.3573 107.242 52.016C107.444 51.6747 107.551 51.0987 107.562 50.288L107.658 45.2H113.818V54H112.09V46.784H109.354L109.274 50.384C109.252 51.2267 109.135 51.9253 108.922 52.48C108.719 53.0347 108.41 53.4453 107.994 53.712C107.578 53.9787 107.055 54.112 106.426 54.112H105.978ZM119.988 54.16C119.561 54.16 119.22 54.0373 118.964 53.792C118.708 53.536 118.58 53.1947 118.58 52.768C118.58 52.3307 118.708 51.984 118.964 51.728C119.22 51.4613 119.561 51.328 119.988 51.328C120.425 51.328 120.766 51.4613 121.012 51.728C121.268 51.984 121.396 52.3307 121.396 52.768C121.396 53.1947 121.268 53.536 121.012 53.792C120.766 54.0373 120.425 54.16 119.988 54.16ZM139.239 54.16C138.514 54.16 137.879 54.0267 137.335 53.76C136.802 53.4827 136.386 53.088 136.087 52.576C135.799 52.0533 135.655 51.4453 135.655 50.752V45.568C135.655 44.864 135.799 44.256 136.087 43.744C136.386 43.232 136.802 42.8427 137.335 42.576C137.879 42.2987 138.514 42.16 139.239 42.16C139.964 42.16 140.594 42.2987 141.127 42.576C141.66 42.8533 142.071 43.248 142.359 43.76C142.658 44.2613 142.807 44.864 142.807 45.568H141.079C141.079 44.96 140.919 44.496 140.599 44.176C140.279 43.856 139.826 43.696 139.239 43.696C138.652 43.696 138.194 43.856 137.863 44.176C137.543 44.496 137.383 44.9547 137.383 45.552V50.752C137.383 51.3493 137.543 51.8133 137.863 52.144C138.194 52.464 138.652 52.624 139.239 52.624C139.826 52.624 140.279 52.464 140.599 52.144C140.919 51.8133 141.079 51.3493 141.079 50.752H142.807C142.807 51.4453 142.658 52.048 142.359 52.56C142.071 53.072 141.66 53.4667 141.127 53.744C140.594 54.0213 139.964 54.16 139.239 54.16ZM148.769 54.144C148.043 54.144 147.414 54.0053 146.881 53.728C146.347 53.4507 145.937 53.056 145.649 52.544C145.361 52.032 145.217 51.4293 145.217 50.736V48.464C145.217 47.76 145.361 47.1573 145.649 46.656C145.937 46.144 146.347 45.7493 146.881 45.472C147.414 45.1947 148.043 45.056 148.769 45.056C149.494 45.056 150.123 45.1947 150.657 45.472C151.19 45.7493 151.601 46.144 151.889 46.656C152.177 47.1573 152.321 47.76 152.321 48.464V50.736C152.321 51.4293 152.177 52.032 151.889 52.544C151.601 53.056 151.19 53.4507 150.657 53.728C150.123 54.0053 149.494 54.144 148.769 54.144ZM148.769 52.624C149.355 52.624 149.809 52.464 150.129 52.144C150.449 51.8133 150.609 51.344 150.609 50.736V48.464C150.609 47.8453 150.449 47.376 150.129 47.056C149.809 46.736 149.355 46.576 148.769 46.576C148.193 46.576 147.739 46.736 147.409 47.056C147.089 47.376 146.929 47.8453 146.929 48.464V50.736C146.929 51.344 147.089 51.8133 147.409 52.144C147.739 52.464 148.193 52.624 148.769 52.624ZM159.771 54.16C159.003 54.16 158.395 53.9147 157.947 53.424C157.499 52.9227 157.275 52.2667 157.275 51.456V50.176H155.914V54H154.395V45.2H155.914V48.912H157.275V47.744C157.275 46.9227 157.493 46.2667 157.931 45.776C158.379 45.2853 158.992 45.04 159.771 45.04C160.581 45.04 161.232 45.2853 161.723 45.776C162.213 46.2667 162.459 46.9227 162.459 47.744V51.456C162.459 52.2667 162.208 52.9227 161.707 53.424C161.216 53.9147 160.571 54.16 159.771 54.16ZM159.771 52.848C160.133 52.848 160.416 52.7253 160.619 52.48C160.832 52.2347 160.939 51.8933 160.939 51.456V47.744C160.939 47.3067 160.832 46.9653 160.619 46.72C160.416 46.4747 160.133 46.352 159.771 46.352C159.419 46.352 159.136 46.4747 158.923 46.72C158.72 46.9653 158.619 47.3067 158.619 47.744V51.456C158.619 51.8933 158.72 52.2347 158.923 52.48C159.136 52.7253 159.419 52.848 159.771 52.848ZM167.524 54.112C166.586 54.112 165.812 53.904 165.204 53.488C164.596 53.0613 164.228 52.4907 164.1 51.776H165.86C165.935 52.032 166.122 52.2453 166.42 52.416C166.719 52.576 167.087 52.656 167.524 52.656H168.324C168.804 52.656 169.178 52.544 169.444 52.32C169.711 52.096 169.844 51.8027 169.844 51.44C169.844 51.0667 169.711 50.768 169.444 50.544C169.188 50.32 168.815 50.208 168.324 50.208H166.356V48.8H168.26C168.708 48.8 169.05 48.6987 169.284 48.496C169.519 48.2827 169.636 48 169.636 47.648C169.636 47.4133 169.583 47.216 169.476 47.056C169.38 46.8853 169.231 46.7573 169.028 46.672C168.826 46.5867 168.575 46.544 168.276 46.544H167.492C167.098 46.544 166.756 46.6347 166.468 46.816C166.191 46.9867 166.02 47.2053 165.956 47.472H164.196C164.314 46.768 164.671 46.1973 165.268 45.76C165.876 45.312 166.618 45.088 167.492 45.088H168.276C168.927 45.088 169.487 45.1893 169.956 45.392C170.426 45.584 170.783 45.8613 171.028 46.224C171.284 46.5867 171.412 47.0133 171.412 47.504C171.412 48.048 171.226 48.496 170.852 48.848C170.479 49.1893 169.967 49.3707 169.316 49.392C170.084 49.4347 170.66 49.6427 171.044 50.016C171.428 50.3787 171.62 50.8907 171.62 51.552C171.62 52.3307 171.322 52.9547 170.724 53.424C170.127 53.8827 169.327 54.112 168.324 54.112H167.524ZM174.126 54V45.2H175.854V48.736H179.246V45.2H180.974V54H179.246V50.32H175.854V54H174.126ZM186.264 54.16C185.346 54.16 184.621 53.9253 184.088 53.456C183.565 52.976 183.304 52.3253 183.304 51.504C183.304 50.672 183.581 50.0213 184.136 49.552C184.701 49.072 185.474 48.832 186.456 48.832H188.904V48.016C188.904 47.536 188.754 47.1627 188.456 46.896C188.157 46.6293 187.736 46.496 187.192 46.496C186.712 46.496 186.312 46.6027 185.992 46.816C185.672 47.0187 185.485 47.2907 185.432 47.632H183.736C183.832 46.8427 184.194 46.2133 184.824 45.744C185.464 45.2747 186.269 45.04 187.24 45.04C188.285 45.04 189.112 45.3067 189.72 45.84C190.328 46.3627 190.632 47.0773 190.632 47.984V54H188.952V52.384H188.664L188.952 52.064C188.952 52.704 188.706 53.216 188.216 53.6C187.725 53.9733 187.074 54.16 186.264 54.16ZM186.776 52.832C187.394 52.832 187.901 52.6773 188.296 52.368C188.701 52.048 188.904 51.6427 188.904 51.152V50H186.488C186.04 50 185.682 50.1227 185.416 50.368C185.16 50.6133 185.032 50.9493 185.032 51.376C185.032 51.824 185.186 52.1813 185.496 52.448C185.805 52.704 186.232 52.832 186.776 52.832ZM192.85 54L195.01 50.704C194.37 50.5227 193.868 50.2027 193.506 49.744C193.154 49.2853 192.978 48.7253 192.978 48.064C192.978 47.168 193.276 46.4693 193.874 45.968C194.471 45.456 195.287 45.2 196.322 45.2H200.161V54H198.45V50.864H196.77L194.834 54H192.85ZM196.37 49.424H198.45V46.672H196.37C195.858 46.672 195.452 46.7947 195.154 47.04C194.866 47.2747 194.722 47.6107 194.722 48.048C194.722 48.4853 194.866 48.8267 195.154 49.072C195.452 49.3067 195.858 49.424 196.37 49.424ZM212.517 54V52.464H215.621V43.824L212.501 46.144V44.272L215.173 42.32H217.349V52.464H219.861V54H212.517ZM222.111 54V52.464H225.215V43.824L222.095 46.144V44.272L224.767 42.32H226.943V52.464H229.455V54H222.111Z" fill="#242424"/>
</svg>
